<svg version="1.1" id="Layer_1" xmlns="http://www.w3.org/2000/svg" xmlns:xlink="http://www.w3.org/1999/xlink" x="0px" y="0px"
	 width="100%" viewBox="0 0 500 500" enable-background="new 0 0 500 500" xml:space="preserve">
<path fill="#FFDE59" opacity="1.000000" stroke="none" 
	d="
M219.000000,0.999998 
	C240.020889,1.000000 261.041779,1.000000 282.201355,1.339412 
	C285.429779,2.449633 288.480042,3.491980 291.615601,3.947639 
	C313.673370,7.153071 334.762299,13.710752 354.892334,23.069532 
	C386.106964,37.581741 413.655914,57.160126 436.691284,83.036606 
	C450.072388,98.068077 461.788940,114.174255 471.310364,131.833817 
	C485.710815,158.542725 495.360413,186.858322 499.079712,217.086472 
	C499.166565,217.792374 500.335663,218.365143 501.000000,219.000000 
	C501.000000,240.020889 501.000000,261.041779 500.660583,282.201355 
	C499.550415,285.429779 498.508118,288.480072 498.052399,291.615631 
	C494.846863,313.673248 488.261475,334.748505 478.936981,354.895172 
	C464.471191,386.150208 444.802734,413.632721 418.962006,436.689484 
	C404.679199,449.433533 389.441681,460.748322 372.741455,469.950989 
	C345.310455,485.066803 316.153778,495.272034 284.913391,499.079620 
	C284.208038,499.165619 283.634827,500.335663 283.000000,501.000000 
	C261.979095,501.000000 240.958206,501.000000 219.798645,500.660583 
	C216.570251,499.550385 213.519989,498.508057 210.384460,498.052399 
	C188.326813,494.846832 167.251541,488.261505 147.104858,478.937012 
	C115.849838,464.471222 88.367432,444.802612 65.310623,418.961945 
	C52.566563,404.679108 41.251625,389.441742 32.048950,372.741486 
	C16.933119,345.310486 6.727964,316.153748 2.920261,284.913422 
	C2.834291,284.208099 1.664323,283.634857 0.999999,283.000000 
	C1.000000,261.979095 1.000000,240.958206 1.339411,219.798645 
	C2.449629,216.570282 3.491976,213.520050 3.947632,210.384567 
	C7.153085,188.326889 13.738501,167.251648 23.062992,147.104950 
	C37.528751,115.849915 57.197296,88.367477 83.037964,65.310677 
	C97.320778,52.566570 112.558235,41.251682 129.258514,32.048992 
	C156.689529,16.933126 185.846222,6.727971 217.086563,2.920259 
	C217.791916,2.834287 218.365143,1.664321 219.000000,0.999998 
M315.745575,351.500122 
	C315.745819,291.000793 315.746399,230.501480 315.746155,170.002151 
	C315.746094,156.168961 315.812988,142.335266 315.712555,128.502792 
	C315.660767,121.373840 311.797424,117.024437 305.906189,117.024498 
	C299.977417,117.024559 296.124298,121.417915 296.122559,128.447021 
	C296.102112,210.112869 296.100800,291.778717 296.124634,373.444550 
	C296.126648,380.344482 300.145325,384.975006 305.865326,384.975311 
	C311.582336,384.975616 315.631104,380.355865 315.721252,373.499664 
	C315.813232,366.500916 315.743805,359.500092 315.745575,351.500122 
M205.883194,318.500031 
	C205.883957,259.009155 205.885696,199.518265 205.884338,140.027374 
	C205.884155,131.348679 202.443100,126.417923 196.271423,126.223709 
	C189.780853,126.019455 186.248444,130.862762 186.248260,139.994354 
	C186.246704,213.983093 186.246918,287.971832 186.254562,361.960571 
	C186.254730,363.624451 186.209869,365.306702 186.426849,366.948547 
	C186.950119,370.908112 189.086578,373.723328 192.873291,375.105194 
	C199.559296,377.545044 205.805084,372.528778 205.856125,364.493042 
	C205.951355,349.495941 205.883209,334.497772 205.883194,318.500031 
M259.638062,215.499496 
	C259.636597,257.320648 259.632629,299.141785 259.641174,340.962952 
	C259.641602,342.959778 259.579590,344.979858 259.844635,346.948975 
	C260.560150,352.264465 265.176025,355.682434 270.559326,355.044250 
	C275.561676,354.451263 279.096466,350.117096 278.818939,344.933685 
	C278.739014,343.441315 278.640808,341.946960 278.643616,340.453644 
	C278.757233,280.304749 278.882050,220.155884 279.001190,160.007004 
	C279.004150,158.508118 279.097809,156.991776 278.912384,155.513275 
	C278.165680,149.560776 272.817993,145.793320 267.041321,147.065964 
	C262.241760,148.123337 259.665405,151.812958 259.651733,158.016068 
	C259.610260,176.843781 259.637451,195.671661 259.638062,215.499496 
M332.890839,178.573181 
	C332.890564,227.390015 332.889465,276.206848 332.893005,325.023682 
	C332.893127,326.855865 332.806183,328.701080 332.986115,330.517792 
	C333.483856,335.543243 337.311279,338.950378 342.355011,338.999237 
	C348.536011,339.059113 352.151642,335.050201 352.155426,327.845764 
	C352.182373,276.696381 352.171661,225.547012 352.163361,174.397629 
	C352.163177,173.233841 352.170624,172.048553 351.967773,170.910126 
	C351.155273,166.350372 346.990356,162.953949 342.403473,163.020004 
	C337.567383,163.089645 333.439178,166.780121 332.976746,171.609268 
	C332.786896,173.591873 332.909637,175.604401 332.890839,178.573181 
M169.104034,226.500031 
	C169.103760,212.171768 169.287613,197.839218 168.955475,183.518661 
	C168.884888,180.474930 167.607880,176.914474 165.679840,174.595474 
	C163.232193,171.651520 159.337845,171.183472 155.571991,172.908554 
	C151.682693,174.690201 149.816772,177.707108 149.818329,181.989960 
	C149.835068,227.973740 149.831268,273.957520 149.837067,319.941315 
	C149.837128,320.440247 149.698883,321.081787 149.948151,321.415558 
	C151.927979,324.066956 153.498688,327.787323 156.163467,328.939423 
	C158.609467,329.996887 163.220627,329.291229 165.133362,327.499786 
	C167.423569,325.354828 168.910294,321.243256 168.940414,317.966766 
	C169.217636,287.813232 169.103912,257.656128 169.104034,226.500031 
M223.106613,195.272385 
	C223.069733,231.598495 223.002594,267.924652 223.026443,304.250702 
	C223.030319,310.145111 227.112167,314.312500 232.476120,314.393158 
	C238.220932,314.479492 242.297104,310.219025 242.309341,303.608337 
	C242.374100,268.613953 242.368698,233.619324 242.316360,198.624908 
	C242.307007,192.368118 239.656387,188.840775 234.733643,187.872864 
	C229.604919,186.864410 226.099365,188.885300 223.106613,195.272385 
M388.948730,277.484436 
	C388.947052,258.156738 389.005707,238.828751 388.909973,219.501526 
	C388.877808,213.013123 385.091187,208.992035 379.408905,208.869492 
	C373.405792,208.740021 369.594299,212.695801 369.392273,219.464203 
	C369.268036,223.626007 369.363190,227.794418 369.363373,231.959869 
	C369.364136,250.287857 369.302979,268.616180 369.401520,286.943634 
	C369.436676,293.483276 373.516205,297.884918 379.147217,297.976593 
	C384.550537,298.064606 388.802429,293.316589 388.937592,286.973633 
	C388.997925,284.142395 388.948486,281.308838 388.948730,277.484436 
M113.050438,235.500381 
	C113.052361,251.330292 112.976295,267.160797 113.096199,282.989807 
	C113.141502,288.970367 117.162689,293.032257 122.576309,293.130798 
	C127.990204,293.229340 132.442993,289.325439 132.494492,283.429626 
	C132.683640,261.770233 132.690735,240.106903 132.479614,218.447861 
	C132.420303,212.362732 128.163971,208.735886 122.524826,208.871246 
	C116.954216,209.004974 113.221024,212.912109 113.079292,219.004639 
	C112.959198,224.167435 113.052124,229.335175 113.050438,235.500381 
z"/>
<path fill="#000000" opacity="1.000000" stroke="none" 
	d="
M501.000000,218.531342 
	C500.335663,218.365143 499.166565,217.792374 499.079712,217.086472 
	C495.360413,186.858322 485.710815,158.542725 471.310364,131.833817 
	C461.788940,114.174255 450.072388,98.068077 436.691284,83.036606 
	C413.655914,57.160126 386.106964,37.581741 354.892334,23.069532 
	C334.762299,13.710752 313.673370,7.153071 291.615601,3.947639 
	C288.480042,3.491980 285.429779,2.449633 282.670013,1.339412 
	C355.593689,1.000000 428.187408,1.000000 501.000000,1.000000 
	C501.000000,73.354080 501.000000,145.708389 501.000000,218.531342 
z"/>
<path fill="#000000" opacity="1.000000" stroke="none" 
	d="
M218.531342,0.999998 
	C218.365143,1.664321 217.791916,2.834287 217.086563,2.920259 
	C185.846222,6.727971 156.689529,16.933126 129.258514,32.048992 
	C112.558235,41.251682 97.320778,52.566570 83.037964,65.310677 
	C57.197296,88.367477 37.528751,115.849915 23.062992,147.104950 
	C13.738501,167.251648 7.153085,188.326889 3.947632,210.384567 
	C3.491976,213.520050 2.449629,216.570282 1.339411,219.329987 
	C1.000000,146.406296 1.000000,73.812584 1.000000,1.000000 
	C73.354080,1.000000 145.708389,1.000000 218.531342,0.999998 
z"/>
<path fill="#000000" opacity="1.000000" stroke="none" 
	d="
M0.999999,283.468658 
	C1.664323,283.634857 2.834291,284.208099 2.920261,284.913422 
	C6.727964,316.153748 16.933119,345.310486 32.048950,372.741486 
	C41.251625,389.441742 52.566563,404.679108 65.310623,418.961945 
	C88.367432,444.802612 115.849838,464.471222 147.104858,478.937012 
	C167.251541,488.261505 188.326813,494.846832 210.384460,498.052399 
	C213.519989,498.508057 216.570251,499.550385 219.329987,500.660583 
	C146.406296,501.000000 73.812607,501.000000 1.000000,501.000000 
	C1.000000,428.645905 1.000000,356.291626 0.999999,283.468658 
z"/>
<path fill="#000000" opacity="1.000000" stroke="none" 
	d="
M283.468628,501.000000 
	C283.634827,500.335663 284.208038,499.165619 284.913391,499.079620 
	C316.153778,495.272034 345.310455,485.066803 372.741455,469.950989 
	C389.441681,460.748322 404.679199,449.433533 418.962006,436.689484 
	C444.802734,413.632721 464.471191,386.150208 478.936981,354.895172 
	C488.261475,334.748505 494.846863,313.673248 498.052399,291.615631 
	C498.508118,288.480072 499.550415,285.429779 500.660583,282.670013 
	C501.000000,355.593689 501.000000,428.187408 501.000000,501.000000 
	C428.645905,501.000000 356.291626,501.000000 283.468628,501.000000 
z"/>
<path fill="#070602" opacity="1.000000" stroke="none" 
	d="
M315.745331,352.000122 
	C315.743805,359.500092 315.813232,366.500916 315.721252,373.499664 
	C315.631104,380.355865 311.582336,384.975616 305.865326,384.975311 
	C300.145325,384.975006 296.126648,380.344482 296.124634,373.444550 
	C296.100800,291.778717 296.102112,210.112869 296.122559,128.447021 
	C296.124298,121.417915 299.977417,117.024559 305.906189,117.024498 
	C311.797424,117.024437 315.660767,121.373840 315.712555,128.502792 
	C315.812988,142.335266 315.746094,156.168961 315.746155,170.002151 
	C315.746399,230.501480 315.745819,291.000793 315.745331,352.000122 
z"/>
<path fill="#070603" opacity="1.000000" stroke="none" 
	d="
M205.883118,319.000061 
	C205.883209,334.497772 205.951355,349.495941 205.856125,364.493042 
	C205.805084,372.528778 199.559296,377.545044 192.873291,375.105194 
	C189.086578,373.723328 186.950119,370.908112 186.426849,366.948547 
	C186.209869,365.306702 186.254730,363.624451 186.254562,361.960571 
	C186.246918,287.971832 186.246704,213.983093 186.248260,139.994354 
	C186.248444,130.862762 189.780853,126.019455 196.271423,126.223709 
	C202.443100,126.417923 205.884155,131.348679 205.884338,140.027374 
	C205.885696,199.518265 205.883957,259.009155 205.883118,319.000061 
z"/>
<path fill="#030301" opacity="1.000000" stroke="none" 
	d="
M259.637970,214.999481 
	C259.637451,195.671661 259.610260,176.843781 259.651733,158.016068 
	C259.665405,151.812958 262.241760,148.123337 267.041321,147.065964 
	C272.817993,145.793320 278.165680,149.560776 278.912384,155.513275 
	C279.097809,156.991776 279.004150,158.508118 279.001190,160.007004 
	C278.882050,220.155884 278.757233,280.304749 278.643616,340.453644 
	C278.640808,341.946960 278.739014,343.441315 278.818939,344.933685 
	C279.096466,350.117096 275.561676,354.451263 270.559326,355.044250 
	C265.176025,355.682434 260.560150,352.264465 259.844635,346.948975 
	C259.579590,344.979858 259.641602,342.959778 259.641174,340.962952 
	C259.632629,299.141785 259.636597,257.320648 259.637970,214.999481 
z"/>
<path fill="#000000" opacity="1.000000" stroke="none" 
	d="
M332.890503,178.088257 
	C332.909637,175.604401 332.786896,173.591873 332.976746,171.609268 
	C333.439178,166.780121 337.567383,163.089645 342.403473,163.020004 
	C346.990356,162.953949 351.155273,166.350372 351.967773,170.910126 
	C352.170624,172.048553 352.163177,173.233841 352.163361,174.397629 
	C352.171661,225.547012 352.182373,276.696381 352.155426,327.845764 
	C352.151642,335.050201 348.536011,339.059113 342.355011,338.999237 
	C337.311279,338.950378 333.483856,335.543243 332.986115,330.517792 
	C332.806183,328.701080 332.893127,326.855865 332.893005,325.023682 
	C332.889465,276.206848 332.890564,227.390015 332.890503,178.088257 
z"/>
<path fill="#010100" opacity="1.000000" stroke="none" 
	d="
M169.104034,227.000046 
	C169.103912,257.656128 169.217636,287.813232 168.940414,317.966766 
	C168.910294,321.243256 167.423569,325.354828 165.133362,327.499786 
	C163.220627,329.291229 158.609467,329.996887 156.163467,328.939423 
	C153.498688,327.787323 151.927979,324.066956 149.948151,321.415558 
	C149.698883,321.081787 149.837128,320.440247 149.837067,319.941315 
	C149.831268,273.957520 149.835068,227.973740 149.818329,181.989960 
	C149.816772,177.707108 151.682693,174.690201 155.571991,172.908554 
	C159.337845,171.183472 163.232193,171.651520 165.679840,174.595474 
	C167.607880,176.914474 168.884888,180.474930 168.955475,183.518661 
	C169.287613,197.839218 169.103760,212.171768 169.104034,227.000046 
z"/>
<path fill="#010000" opacity="1.000000" stroke="none" 
	d="
M223.214340,194.861908 
	C226.099365,188.885300 229.604919,186.864410 234.733643,187.872864 
	C239.656387,188.840775 242.307007,192.368118 242.316360,198.624908 
	C242.368698,233.619324 242.374100,268.613953 242.309341,303.608337 
	C242.297104,310.219025 238.220932,314.479492 232.476120,314.393158 
	C227.112167,314.312500 223.030319,310.145111 223.026443,304.250702 
	C223.002594,267.924652 223.069733,231.598495 223.214340,194.861908 
z"/>
<path fill="#070602" opacity="1.000000" stroke="none" 
	d="
M388.948792,277.980377 
	C388.948486,281.308838 388.997925,284.142395 388.937592,286.973633 
	C388.802429,293.316589 384.550537,298.064606 379.147217,297.976593 
	C373.516205,297.884918 369.436676,293.483276 369.401520,286.943634 
	C369.302979,268.616180 369.364136,250.287857 369.363373,231.959869 
	C369.363190,227.794418 369.268036,223.626007 369.392273,219.464203 
	C369.594299,212.695801 373.405792,208.740021 379.408905,208.869492 
	C385.091187,208.992035 388.877808,213.013123 388.909973,219.501526 
	C389.005707,238.828751 388.947052,258.156738 388.948792,277.980377 
z"/>
<path fill="#070602" opacity="1.000000" stroke="none" 
	d="
M113.050613,235.000549 
	C113.052124,229.335175 112.959198,224.167435 113.079292,219.004639 
	C113.221024,212.912109 116.954216,209.004974 122.524826,208.871246 
	C128.163971,208.735886 132.420303,212.362732 132.479614,218.447861 
	C132.690735,240.106903 132.683640,261.770233 132.494492,283.429626 
	C132.442993,289.325439 127.990204,293.229340 122.576309,293.130798 
	C117.162689,293.032257 113.141502,288.970367 113.096199,282.989807 
	C112.976295,267.160797 113.052361,251.330292 113.050613,235.000549 
z"/>
</svg>